<?xml version="1.0" encoding="utf-8"?>
<!-- Generator: Adobe Illustrator 28.0.0, SVG Export Plug-In . SVG Version: 6.00 Build 0)  -->
<svg version="1.1" id="Layer_1" xmlns="http://www.w3.org/2000/svg" xmlns:xlink="http://www.w3.org/1999/xlink" x="0px" y="0px"
	 viewBox="0 0 124.2 60" style="enable-background:new 0 0 124.2 60;" xml:space="preserve">
<style type="text/css">
	.st0{fill:#FFFFFF;}
</style>
<g>
	<g>
		<g>
			<g>
				<path class="st0" d="M54,45.1c-0.4,0-0.6-0.3-0.6-0.6V26.6c0-2-1.6-3.6-3.6-3.6c-2,0-3.6,1.6-3.6,3.6v15.1c0,1-0.3,1.9-1,2.5
					c-0.6,0.5-1.4,0.9-2.2,0.9c-1.6,0-3.2-1.1-3.2-3.4V23.8c0-2-1.6-3.6-3.6-3.6c-2,0-3.6,1.6-3.6,3.6v20.6c0,0.3-0.3,0.6-0.6,0.6
					h-0.2c-0.3,0-0.6-0.3-0.6-0.6V23.8c0-2.8,2.2-5,5-5c2.7,0,4.9,2.2,4.9,5v17.9c0,1.4,0.9,2,1.8,2c0.5,0,0.9-0.2,1.2-0.5
					c0.4-0.3,0.5-0.9,0.5-1.5V26.6c0-2.8,2.2-5,5-5c2.7,0,4.9,2.2,4.9,5v17.8C54.6,44.7,54.4,45,54,45.1L54,45.1L54,45.1z"/>
				<g>
					<path class="st0" d="M36.2,17.4c-2.3,0-4.3-1.9-4.3-4.3s1.9-4.3,4.3-4.3c2.3,0,4.3,1.9,4.3,4.3S38.5,17.4,36.2,17.4z
						 M36.2,10.3c-1.6,0-2.9,1.3-2.9,2.9c0,1.6,1.3,2.9,2.9,2.9c1.6,0,2.9-1.3,2.9-2.9C39,11.6,37.8,10.3,36.2,10.3z"/>
				</g>
				<g>
					<path class="st0" d="M49.8,20.3c-2.3,0-4.3-1.9-4.3-4.3s1.9-4.3,4.3-4.3c2.3,0,4.3,1.9,4.3,4.3S52.1,20.3,49.8,20.3z
						 M49.8,13.1c-1.6,0-2.9,1.3-2.9,2.9s1.3,2.9,2.9,2.9c1.6,0,2.9-1.3,2.9-2.9S51.3,13.1,49.8,13.1z"/>
				</g>
			</g>
			<path class="st0" d="M83.3,45.1c-0.3,0-0.6-0.3-0.6-0.6V20.3h-2.5c-0.3,0-0.6-0.3-0.6-0.6v-0.1c0-0.4,0.3-0.6,0.6-0.6h6.4
				c0.3,0,0.6,0.3,0.6,0.6v0.1c0,0.3-0.3,0.6-0.6,0.6H84v24.2c0,0.3-0.3,0.6-0.6,0.6C83.4,45.1,83.3,45.1,83.3,45.1z"/>
			<path class="st0" d="M90.2,45.1c-0.3,0-0.6-0.3-0.6-0.6V19.6c0-0.4,0.3-0.6,0.6-0.6h0.1c0.4,0,0.6,0.3,0.6,0.6v24.9
				c0,0.3-0.3,0.6-0.6,0.6H90.2z"/>
			<path class="st0" d="M95.2,45.1c-0.4,0-0.6-0.3-0.6-0.7V19.6c0-0.4,0.3-0.7,0.6-0.7h5.3c0.3,0,0.6,0.3,0.6,0.6v0.1
				c0,0.3-0.3,0.6-0.6,0.6h-4.7v11h4.7c0.3,0,0.6,0.3,0.6,0.6V32c0,0.3-0.3,0.6-0.6,0.6h-4.7v11h4.7c0.3,0,0.6,0.3,0.6,0.6v0.2
				c0,0.3-0.3,0.6-0.6,0.6L95.2,45.1L95.2,45.1z"/>
			<path class="st0" d="M105.5,45.1c-0.4,0-0.7-0.3-0.7-0.7V19.6c0-0.4,0.3-0.7,0.7-0.7h4.3c2.8,0,5,2.2,5,5v16.2c0,2.8-2.2,5-5,5
				L105.5,45.1L105.5,45.1z M109.8,43.7c2,0,3.6-1.6,3.6-3.6V23.8c0-2-1.6-3.6-3.6-3.6h-3.6v23.5H109.8z"/>
			<path class="st0" d="M9.7,45.1c-2.7,0-5-2.2-5-5V23.8c0-2.8,2.2-5,5-5c2.7,0,4.9,2.2,4.9,5v1c0,0.3-0.3,0.6-0.6,0.6h-0.1
				c-0.3,0-0.6-0.3-0.6-0.6v-1c0-2-1.6-3.6-3.6-3.6S6,21.8,6,23.8v16.2c0,2,1.6,3.6,3.6,3.6s3.6-1.6,3.6-3.6v-1.1
				c0-0.4,0.3-0.6,0.6-0.6H14c0.3,0,0.6,0.2,0.6,0.6v1.1C14.6,42.8,12.4,45.1,9.7,45.1z"/>
			<path class="st0" d="M22.7,45.1c-2.8,0-5-2.2-5-5V23.8c0-2.8,2.2-5,5-5c2.7,0,4.9,2.2,4.9,5v16.2C27.6,42.8,25.4,45.1,22.7,45.1z
				 M22.7,20.3c-2,0-3.6,1.6-3.6,3.6v16.2c0,2,1.6,3.6,3.6,3.6s3.6-1.6,3.6-3.6V23.9C26.2,21.9,24.6,20.3,22.7,20.3z"/>
			<path class="st0" d="M59,45.1c-0.4,0-0.6-0.3-0.6-0.7V19.6c0-0.4,0.3-0.7,0.6-0.7h5.3c0.3,0,0.6,0.3,0.6,0.6v0.1
				c0,0.3-0.3,0.6-0.6,0.6h-4.7v11h4.7c0.3,0,0.6,0.3,0.6,0.6V32c0,0.3-0.3,0.6-0.6,0.6h-4.7v11h4.7c0.3,0,0.6,0.3,0.6,0.6v0.2
				c0,0.3-0.3,0.6-0.6,0.6L59,45.1L59,45.1z"/>
			<path class="st0" d="M73.6,45.1c-2.8,0-5-2.2-5-5V23.8c0-2.8,2.2-5,5-5c2.7,0,4.9,2.2,4.9,5v1c0,0.3-0.3,0.6-0.6,0.6h-0.1
				c-0.3,0-0.6-0.3-0.6-0.6v-1c0-2-1.6-3.6-3.6-3.6S70,21.8,70,23.8v16.2c0,2,1.6,3.6,3.6,3.6s3.6-1.6,3.6-3.6v-1.1
				c0-0.4,0.3-0.6,0.6-0.6h0.1c0.3,0,0.6,0.2,0.6,0.6v1.1C78.5,42.8,76.3,45.1,73.6,45.1z"/>
		</g>
	</g>
	<g>
		<path class="st0" d="M117.8,21.8c-0.9,0-1.7-0.8-1.7-1.7c0-1,0.8-1.7,1.7-1.7c0.9,0,1.7,0.8,1.7,1.7
			C119.5,21,118.8,21.8,117.8,21.8z M117.8,18.6c-0.8,0-1.5,0.6-1.5,1.5c0,0.8,0.6,1.5,1.5,1.5s1.5-0.6,1.5-1.5
			S118.6,18.6,117.8,18.6z"/>
	</g>
	<g>
		<path class="st0" d="M117.2,19.2c0.1,0,0.3-0.1,0.5-0.1c0.3,0,0.4,0.1,0.5,0.2c0.1,0.1,0.2,0.2,0.2,0.4c0,0.2-0.2,0.4-0.3,0.4l0,0
			c0.1,0.1,0.2,0.2,0.3,0.3c0.1,0.2,0.1,0.4,0.2,0.5h-0.3c0-0.1-0.1-0.2-0.1-0.4c-0.1-0.2-0.2-0.3-0.3-0.3h-0.2v0.8h-0.3V19.2z
			 M117.6,20h0.2c0.2,0,0.4-0.1,0.4-0.3c0-0.2-0.2-0.3-0.4-0.3c-0.1,0-0.2,0-0.2,0V20z"/>
	</g>
</g>
</svg>
